<?xml version="1.0" standalone="no"?>
<!DOCTYPE svg PUBLIC "-//W3C//DTD SVG 20010904//EN"
 "http://www.w3.org/TR/2001/REC-SVG-20010904/DTD/svg10.dtd">
<svg version="1.0" xmlns="http://www.w3.org/2000/svg"
 width="300.000000pt" height="300.000000pt" viewBox="0 0 300.000000 300.000000"
 preserveAspectRatio="xMidYMid meet">
<metadata>
Created by potrace 1.10, written by Peter Selinger 2001-2011
</metadata>
<g transform="translate(0.000000,300.000000) scale(0.100000,-0.100000)"
fill="#ffffff" stroke="none">
<path d="M1424 2966 c-18 -14 -19 -34 -15 -923 2 -499 6 -1125 10 -1390 7
-449 8 -484 26 -503 10 -11 26 -20 36 -20 23 0 54 44 43 62 -5 7 -9 166 -9
353 -1 187 -5 804 -9 1370 -7 904 -10 1032 -24 1048 -18 21 -32 21 -58 3z"/>
</g>
</svg>
