<?xml version="1.0" standalone="no"?>
<!DOCTYPE svg PUBLIC "-//W3C//DTD SVG 20010904//EN"
 "http://www.w3.org/TR/2001/REC-SVG-20010904/DTD/svg10.dtd">
<svg version="1.0" xmlns="http://www.w3.org/2000/svg"
 width="300.000000pt" height="300.000000pt" viewBox="0 0 300.000000 300.000000"
 preserveAspectRatio="xMidYMid meet">
<metadata>
Created by potrace 1.10, written by Peter Selinger 2001-2011
</metadata>
<g transform="translate(0.000000,300.000000) scale(0.100000,-0.100000)"
fill="#ffffff" stroke="none">
<path d="M1405 2504 c-16 -2 -77 -9 -135 -15 -195 -20 -328 -61 -445 -135 -27
-17 -72 -44 -99 -59 -82 -46 -251 -234 -314 -350 -35 -63 -80 -213 -87 -290
-8 -75 8 -256 31 -370 8 -38 28 -97 44 -130 16 -33 44 -94 63 -135 18 -41 61
-115 96 -165 59 -86 184 -225 201 -225 8 0 44 -21 175 -100 98 -60 223 -109
310 -121 177 -25 540 -11 710 27 82 18 204 72 292 129 87 56 186 154 180 177
-3 11 8 39 26 66 51 75 97 205 114 317 20 142 32 291 32 427 1 105 -2 124 -28
196 -63 169 -174 346 -276 439 -237 217 -459 313 -735 318 -69 2 -138 1 -155
-1z m370 -125 c144 -36 224 -77 372 -191 135 -102 257 -271 326 -448 l29 -75
-5 -200 c-5 -173 -24 -364 -43 -430 -19 -63 -74 -170 -125 -240 -105 -145 -86
-129 -241 -210 -109 -56 -254 -82 -520 -92 -308 -10 -396 10 -616 141 -56 33
-117 69 -136 78 -57 29 -223 243 -267 345 -12 26 -36 82 -54 123 -53 118 -67
201 -68 385 -1 156 0 162 31 245 18 46 53 116 79 155 62 90 194 228 239 250
19 9 71 38 115 65 89 54 142 74 239 90 36 6 101 17 145 25 44 7 146 14 228 14
134 1 159 -2 272 -30z"/>
</g>
</svg>
