<?xml version="1.0" standalone="no"?>
<!DOCTYPE svg PUBLIC "-//W3C//DTD SVG 20010904//EN"
 "http://www.w3.org/TR/2001/REC-SVG-20010904/DTD/svg10.dtd">
<svg version="1.0" xmlns="http://www.w3.org/2000/svg"
 width="300.000000pt" height="300.000000pt" viewBox="0 0 300.000000 300.000000"
 preserveAspectRatio="xMidYMid meet">
<metadata>
Created by potrace 1.10, written by Peter Selinger 2001-2011
</metadata>
<g transform="translate(0.000000,300.000000) scale(0.100000,-0.100000)"
fill="#ffffff" stroke="none">
<path d="M2843 2833 c-51 -60 -225 -270 -523 -632 -148 -179 -848 -1027 -1238
-1498 -128 -155 -237 -285 -242 -288 -5 -3 -94 77 -197 177 -332 324 -401 388
-413 388 -6 0 -20 -5 -31 -10 -47 -26 -29 -48 292 -361 171 -167 322 -308 336
-314 23 -9 30 -5 72 41 25 28 125 147 223 265 97 118 275 333 395 479 1451
1756 1453 1758 1453 1775 0 20 -28 45 -50 45 -11 0 -44 -29 -77 -67z"/>
</g>
</svg>
