<?xml version="1.0" standalone="no"?>
<!DOCTYPE svg PUBLIC "-//W3C//DTD SVG 20010904//EN"
 "http://www.w3.org/TR/2001/REC-SVG-20010904/DTD/svg10.dtd">
<svg version="1.0" xmlns="http://www.w3.org/2000/svg"
 width="300.000000pt" height="300.000000pt" viewBox="0 0 300.000000 300.000000"
 preserveAspectRatio="xMidYMid meet">
<metadata>
Created by potrace 1.10, written by Peter Selinger 2001-2011
</metadata>
<g transform="translate(0.000000,300.000000) scale(0.100000,-0.100000)"
fill="#ffffff" stroke="none">
<path d="M1927 2894 c-3 -3 -158 -7 -344 -9 -186 -2 -383 -8 -438 -14 -102
-10 -247 -34 -277 -46 -35 -14 -41 -62 -44 -375 -3 -168 -9 -348 -15 -400 -5
-52 -14 -169 -19 -260 -13 -247 -30 -476 -41 -555 -5 -38 -12 -194 -15 -345
-3 -167 -11 -306 -20 -354 -20 -111 -19 -354 2 -384 19 -28 49 -28 68 0 13 18
16 54 16 183 0 88 5 177 11 198 5 20 14 176 19 345 5 169 16 384 24 477 9 94
20 256 26 360 5 105 16 251 25 325 12 99 15 206 13 407 -2 208 0 275 10 285
30 30 361 64 532 54 63 -3 206 -1 317 6 112 6 206 8 210 4 4 -4 11 -82 15
-174 10 -219 15 -249 39 -263 28 -15 58 -2 65 28 4 14 3 64 -1 112 -4 47 -10
151 -14 229 -7 168 -10 172 -101 172 -31 0 -59 -3 -63 -6z"/>
</g>
</svg>
