<?xml version="1.0" standalone="no"?>
<!DOCTYPE svg PUBLIC "-//W3C//DTD SVG 20010904//EN"
 "http://www.w3.org/TR/2001/REC-SVG-20010904/DTD/svg10.dtd">
<svg version="1.0" xmlns="http://www.w3.org/2000/svg"
 width="300.000000pt" height="300.000000pt" viewBox="0 0 300.000000 300.000000"
 preserveAspectRatio="xMidYMid meet">
<metadata>
Created by potrace 1.10, written by Peter Selinger 2001-2011
</metadata>
<g transform="translate(0.000000,300.000000) scale(0.100000,-0.100000)"
fill="#8a8a8a" stroke="none">
<path d="M1365 2994 c-286 -41 -486 -112 -685 -245 -361 -242 -590 -602 -656
-1034 -16 -108 -18 -304 -3 -412 88 -648 576 -1158 1224 -1279 133 -25 390
-25 524 0 437 81 822 357 1033 742 196 355 241 776 127 1167 -38 129 -139 336
-219 449 -80 112 -261 288 -375 364 -169 113 -368 194 -560 229 -87 16 -348
28 -410 19z m245 -604 c231 -30 371 -222 357 -490 -8 -158 -47 -233 -201 -380
-130 -124 -216 -257 -216 -335 0 -23 7 -59 15 -79 14 -33 14 -37 -1 -43 -25
-9 -125 14 -154 35 -14 11 -36 34 -48 53 -20 29 -23 43 -19 89 7 78 49 176
123 285 35 52 74 116 87 142 85 168 47 342 -85 398 -86 35 -170 -1 -218 -95
-20 -38 -23 -58 -22 -130 1 -47 3 -96 5 -110 3 -36 -41 -39 -96 -6 -143 83
-141 341 4 533 83 110 258 160 469 133z m-22 -1508 c50 -25 82 -83 82 -147 0
-124 -131 -205 -244 -150 -108 52 -130 192 -43 273 56 52 133 61 205 24z"/>
</g>
</svg>
