<?xml version="1.0" standalone="no"?>
<!DOCTYPE svg PUBLIC "-//W3C//DTD SVG 20010904//EN"
 "http://www.w3.org/TR/2001/REC-SVG-20010904/DTD/svg10.dtd">
<svg version="1.0" xmlns="http://www.w3.org/2000/svg"
 width="300.000000pt" height="300.000000pt" viewBox="0 0 300.000000 300.000000"
 preserveAspectRatio="xMidYMid meet">
<metadata>
Created by potrace 1.10, written by Peter Selinger 2001-2011
</metadata>
<g transform="translate(0.000000,300.000000) scale(0.100000,-0.100000)"
fill="#ffffff" stroke="none">
<path d="M46 2884 c-32 -31 -55 0 454 -614 350 -423 1109 -1343 1378 -1669 98
-118 198 -237 223 -265 42 -46 49 -50 72 -41 14 6 165 147 336 314 321 313
339 335 292 361 -39 20 -12 43 -444 -378 -103 -100 -192 -180 -197 -177 -5 3
-114 133 -242 288 -390 471 -1090 1319 -1238 1498 -560 680 -576 699 -600 699
-10 0 -26 -7 -34 -16z"/>
</g>
</svg>
